<?xml version="1.0" standalone="no"?>
<!DOCTYPE svg PUBLIC "-//W3C//DTD SVG 20010904//EN"
 "http://www.w3.org/TR/2001/REC-SVG-20010904/DTD/svg10.dtd">
<svg version="1.0" xmlns="http://www.w3.org/2000/svg"
 width="300.000000pt" height="300.000000pt" viewBox="0 0 300.000000 300.000000"
 preserveAspectRatio="xMidYMid meet">
<metadata>
Created by potrace 1.10, written by Peter Selinger 2001-2011
</metadata>
<g transform="translate(0.000000,300.000000) scale(0.100000,-0.100000)"
fill="#000000" stroke="none">
<path d="M1652 2153 c18 -27 36 -50 39 -53 3 -3 34 -47 68 -99 l61 -94 -437
-441 -438 -441 -26 95 c-14 52 -30 93 -35 90 -9 -5 -9 -9 -1 -65 5 -30 53
-164 63 -174 3 -3 30 22 60 54 58 63 235 245 622 636 l233 236 -69 104 c-72
108 -146 199 -163 199 -6 0 5 -21 23 -47z"/>
<path d="M1593 1950 c0 -47 2 -66 4 -42 2 23 2 61 0 85 -2 23 -4 4 -4 -43z"/>
<path d="M1486 1948 c-34 -98 -150 -258 -226 -313 -16 -11 -33 -28 -39 -38
-11 -17 -10 -17 19 -2 40 21 73 53 142 140 72 91 110 158 124 217 15 64 3 61
-20 -4z"/>
<path d="M1188 1868 c-4 -113 -6 -119 -46 -200 -23 -45 -56 -106 -72 -133 -37
-63 -75 -168 -83 -226 -3 -24 -2 -73 2 -109 l8 -65 2 73 c1 97 43 249 83 301
10 13 18 28 18 33 0 6 9 23 21 39 11 16 33 55 49 86 21 42 31 53 35 41 6 -14
-3 -40 -33 -103 -3 -5 11 5 30 23 33 31 36 39 40 104 6 75 -10 177 -35 224
-13 26 -15 20 -19 -88z"/>
<path d="M1917 1836 c-76 -78 -344 -350 -595 -605 -426 -432 -455 -464 -437
-477 28 -20 32 -18 40 23 12 64 23 16 21 -94 l-1 -101 609 610 c561 562 608
612 591 624 -10 8 -32 14 -49 14 -28 0 -28 -1 -11 -14 17 -12 17 -15 -13 -52
-45 -56 -1069 -1074 -1080 -1074 -13 0 -41 102 -33 117 7 14 534 554 861 882
212 213 215 216 218 184 3 -35 16 -43 26 -17 9 22 7 124 -1 123 -5 -1 -70 -65
-146 -143z"/>
<path d="M1495 1683 c-15 -21 -55 -64 -88 -97 -60 -57 -61 -58 -10 -17 45 36
71 65 126 139 5 6 7 12 4 12 -2 0 -17 -17 -32 -37z"/>
<path d="M1640 1158 c-239 -242 -436 -444 -438 -448 -5 -12 153 -70 222 -82
189 -31 419 56 556 210 154 173 202 401 137 646 -15 55 -30 103 -34 107 -5 3
-204 -191 -443 -433z m422 308 c1 -20 5 -32 9 -25 22 37 42 -47 40 -171 -5
-265 -176 -499 -422 -578 -95 -30 -118 -34 -187 -33 -73 1 -142 15 -190 38
-29 14 -33 20 -27 42 3 14 15 32 26 40 19 13 159 150 159 155 0 12 577 583
583 577 4 -4 8 -24 9 -45z"/>
<path d="M2046 1320 c-4 -28 -9 -58 -12 -68 -5 -15 -4 -15 5 -1 11 16 27 119
19 119 -3 0 -8 -23 -12 -50z"/>
<path d="M1992 1157 c-43 -95 -121 -197 -193 -255 -66 -53 -72 -72 -7 -21 81
62 149 145 192 234 16 33 36 72 43 88 7 15 10 27 6 27 -5 -1 -23 -33 -41 -73z"/>
</g>
</svg>
